{
  "accessors": [
    {
      "bufferView": 2,
      "componentType": 5126,
      "count": 4402,
      "max": [
        2.2370126247406006,
        1.008544921875,
        3.2576303482055664
      ],
      "min": [
        -2.2370126247406006,
        -1.1991775035858154,
        0.00015199184417724609
      ],
      "type": "VEC3"
    },
    {
      "bufferView": 2,
      "byteOffset": 52824,
      "componentType": 5126,
      "count": 4402,
      "max": [
        1,
        1,
        1
      ],
      "min": [
        -1,
        -1,
        -1
      ],
      "type": "VEC3"
    },
    {
      "bufferView": 3,
      "componentType": 5126,
      "count": 4402,
      "max": [
        1,
        1,
        1,
        1
      ],
      "min": [
        -1,
        -1,
        -1,
        1
      ],
      "type": "VEC4"
    },
    {
      "bufferView": 1,
      "componentType": 5126,
      "count": 4402,
      "max": [
        0.65939927101135254,
        0.66566562652587891
      ],
      "min": [
        0.0022591222077608109,
        0.0066927014850080013
      ],
      "type": "VEC2"
    },
    {
      "bufferView": 0,
      "componentType": 5125,
      "count": 7632,
      "max": [
        4401
      ],
      "min": [
        0
      ],
      "type": "SCALAR"
    },
    {
      "bufferView": 2,
      "byteOffset": 105648,
      "componentType": 5126,
      "count": 900,
      "max": [
        3.2043418884277344,
        0.95299917459487915,
        3.4004349708557129
      ],
      "min": [
        -3.2043418884277344,
        -1.264954686164856,
        1.3535916805267334
      ],
      "type": "VEC3"
    },
    {
      "bufferView": 2,
      "byteOffset": 116448,
      "componentType": 5126,
      "count": 900,
      "max": [
        1,
        0.99998241662979126,
        0.99998193979263306
      ],
      "min": [
        -1,
        -0.99999946355819702,
        -0.99999326467514038
      ],
      "type": "VEC3"
    },
    {
      "bufferView": 3,
      "byteOffset": 70432,
      "componentType": 5126,
      "count": 900,
      "max": [
        0.10824518650770187,
        0.99999964237213135,
        0.9999995231628418,
        1
      ],
      "min": [
        -0.10824522376060486,
        -0.99999326467514038,
        -0.99997138977050781,
        1
      ],
      "type": "VEC4"
    },
    {
      "bufferView": 1,
      "byteOffset": 35216,
      "componentType": 5126,
      "count": 900,
      "max": [
        0.99980205297470093,
        0.98508358001708984
      ],
      "min": [
        0.00024439790286123753,
        0.01491477619856596
      ],
      "type": "VEC2"
    },
    {
      "bufferView": 0,
      "byteOffset": 30528,
      "componentType": 5125,
      "count": 1482,
      "max": [
        899
      ],
      "min": [
        0
      ],
      "type": "SCALAR"
    },
    {
      "bufferView": 2,
      "byteOffset": 127248,
      "componentType": 5126,
      "count": 19804,
      "max": [
        155.85787963867188,
        239.96672058105469,
        204.23129272460938
      ],
      "min": [
        -155.85787963867188,
        2.0721218585968018,
        -148.5592041015625
      ],
      "type": "VEC3"
    },
    {
      "bufferView": 2,
      "byteOffset": 364896,
      "componentType": 5126,
      "count": 19804,
      "max": [
        0.99912238121032715,
        1,
        0.97411960363388062
      ],
      "min": [
        -0.99912381172180176,
        -1,
        -0.97658759355545044
      ],
      "type": "VEC3"
    },
    {
      "bufferView": 3,
      "byteOffset": 84832,
      "componentType": 5126,
      "count": 19804,
      "max": [
        1,
        0.97658765316009521,
        0.99911880493164062,
        1
      ],
      "min": [
        -1,
        -0.96169549226760864,
        -0.99912017583847046,
        -1
      ],
      "type": "VEC4"
    },
    {
      "bufferView": 1,
      "byteOffset": 42416,
      "componentType": 5126,
      "count": 19804,
      "max": [
        1,
        1
      ],
      "min": [
        0,
        0.01000000536441803
      ],
      "type": "VEC2"
    },
    {
      "bufferView": 0,
      "byteOffset": 36456,
      "componentType": 5125,
      "count": 37332,
      "max": [
        19803
      ],
      "min": [
        0
      ],
      "type": "SCALAR"
    }
  ],
  "asset": {
    "extras": {
      "author": "SusanKing (https://sketchfab.com/krolzuzannapl)",
      "license": "CC-BY-4.0 (http://creativecommons.org/licenses/by/4.0/)",
      "source": "https://sketchfab.com/3d-models/park-bench-dcb057ffb7e949a7a1ec5523321d965b",
      "title": "Park bench"
    },
    "generator": "Sketchfab-8.39.0",
    "version": "2.0"
  },
  "bufferViews": [
    {
      "buffer": 0,
      "byteLength": 185784,
      "byteOffset": 0,
      "name": "floatBufferViews",
      "target": 34963
    },
    {
      "buffer": 0,
      "byteLength": 200848,
      "byteOffset": 185784,
      "byteStride": 8,
      "name": "floatBufferViews",
      "target": 34962
    },
    {
      "buffer": 0,
      "byteLength": 602544,
      "byteOffset": 386632,
      "byteStride": 12,
      "name": "floatBufferViews",
      "target": 34962
    },
    {
      "buffer": 0,
      "byteLength": 401696,
      "byteOffset": 989176,
      "byteStride": 16,
      "name": "floatBufferViews",
      "target": 34962
    }
  ],
  "buffers": [
    {
      "byteLength": 1390872,
      "uri": "scene.bin"
    }
  ],
  "images": [
    {
      "uri": "textures/metal_baseColor.jpeg"
    },
    {
      "uri": "textures/metal_metallicRoughness.png"
    },
    {
      "uri": "textures/metal_normal.png"
    },
    {
      "uri": "textures/wood_baseColor.jpeg"
    },
    {
      "uri": "textures/wood_metallicRoughness.png"
    },
    {
      "uri": "textures/wood_normal.png"
    },
    {
      "uri": "textures/screws_baseColor.jpeg"
    },
    {
      "uri": "textures/screws_metallicRoughness.png"
    },
    {
      "uri": "textures/screws_normal.png"
    }
  ],
  "materials": [
    {
      "doubleSided": true,
      "emissiveFactor": [
        0,
        0,
        0
      ],
      "name": "metal",
      "normalTexture": {
        "index": 2,
        "scale": 1,
        "texCoord": 0
      },
      "pbrMetallicRoughness": {
        "baseColorFactor": [
          1,
          1,
          1,
          1
        ],
        "baseColorTexture": {
          "index": 0,
          "texCoord": 0
        },
        "metallicFactor": 1,
        "metallicRoughnessTexture": {
          "index": 1,
          "texCoord": 0
        },
        "roughnessFactor": 1
      }
    },
    {
      "doubleSided": true,
      "emissiveFactor": [
        0,
        0,
        0
      ],
      "name": "wood",
      "normalTexture": {
        "index": 5,
        "scale": 1,
        "texCoord": 0
      },
      "pbrMetallicRoughness": {
        "baseColorFactor": [
          1,
          1,
          1,
          1
        ],
        "baseColorTexture": {
          "index": 3,
          "texCoord": 0
        },
        "metallicFactor": 0,
        "metallicRoughnessTexture": {
          "index": 4,
          "texCoord": 0
        },
        "roughnessFactor": 1
      }
    },
    {
      "doubleSided": true,
      "emissiveFactor": [
        0,
        0,
        0
      ],
      "name": "screws",
      "normalTexture": {
        "index": 8,
        "scale": 1,
        "texCoord": 0
      },
      "pbrMetallicRoughness": {
        "baseColorFactor": [
          1,
          1,
          1,
          1
        ],
        "baseColorTexture": {
          "index": 6,
          "texCoord": 0
        },
        "metallicFactor": 0.60972736500000002,
        "metallicRoughnessTexture": {
          "index": 7,
          "texCoord": 0
        },
        "roughnessFactor": 1
      }
    }
  ],
  "meshes": [
    {
      "name": "metal_metal_0",
      "primitives": [
        {
          "attributes": {
            "NORMAL": 1,
            "POSITION": 0,
            "TANGENT": 2,
            "TEXCOORD_0": 3
          },
          "indices": 4,
          "material": 0,
          "mode": 4
        }
      ]
    },
    {
      "name": "wood_wood_0",
      "primitives": [
        {
          "attributes": {
            "NORMAL": 6,
            "POSITION": 5,
            "TANGENT": 7,
            "TEXCOORD_0": 8
          },
          "indices": 9,
          "material": 1,
          "mode": 4
        }
      ]
    },
    {
      "name": "screws_screws_0",
      "primitives": [
        {
          "attributes": {
            "NORMAL": 11,
            "POSITION": 10,
            "TANGENT": 12,
            "TEXCOORD_0": 13
          },
          "indices": 14,
          "material": 2,
          "mode": 4
        }
      ]
    }
  ],
  "nodes": [
    {
      "children": [
        1
      ],
      "name": "RootNode (gltf orientation matrix)",
      "rotation": [
        -0.70710678118654746,
        -0,
        -0,
        0.70710678118654757
      ]
    },
    {
      "children": [
        2
      ],
      "name": "RootNode (model correction matrix)"
    },
    {
      "children": [
        3
      ],
      "matrix": [
        1,
        0,
        0,
        0,
        0,
        0,
        1,
        0,
        0,
        -1,
        0,
        0,
        0,
        0,
        0,
        1
      ],
      "name": "f1e9e585a017483798b43b798bb80892.fbx"
    },
    {
      "children": [
        4,
        6,
        8
      ],
      "name": "RootNode"
    },
    {
      "children": [
        5
      ],
      "matrix": [
        35.327037811279297,
        0,
        0,
        0,
        0,
        -5.7555050011145401e-06,
        -35.327037811278828,
        0,
        0,
        35.327037811278828,
        -5.7555050011145401e-06,
        0,
        0,
        -5.9604644775390625e-06,
        0,
        1
      ],
      "name": "metal"
    },
    {
      "mesh": 0,
      "name": "metal_metal_0"
    },
    {
      "children": [
        7
      ],
      "matrix": [
        35.327037811279297,
        0,
        0,
        0,
        0,
        -5.7555050011145401e-06,
        -35.327037811278828,
        0,
        0,
        35.327037811278828,
        -5.7555050011145401e-06,
        0,
        0,
        -5.9604644775390625e-06,
        0,
        1
      ],
      "name": "wood"
    },
    {
      "mesh": 1,
      "name": "wood_wood_0"
    },
    {
      "children": [
        9
      ],
      "matrix": [
        0.49421605467796326,
        0,
        0,
        0,
        0,
        0.49421605467796276,
        2.1602869863568152e-08,
        0,
        0,
        -9.1970812802986082e-09,
        0.21040469408035256,
        0,
        0,
        7.1054273576010019e-13,
        -1.7763568394002505e-13,
        1
      ],
      "name": "screws"
    },
    {
      "mesh": 2,
      "name": "screws_screws_0"
    }
  ],
  "samplers": [
    {
      "magFilter": 9729,
      "minFilter": 9987,
      "wrapS": 10497,
      "wrapT": 10497
    }
  ],
  "scene": 0,
  "scenes": [
    {
      "name": "OSG_Scene",
      "nodes": [
        0
      ]
    }
  ],
  "textures": [
    {
      "sampler": 0,
      "source": 0
    },
    {
      "sampler": 0,
      "source": 1
    },
    {
      "sampler": 0,
      "source": 2
    },
    {
      "sampler": 0,
      "source": 3
    },
    {
      "sampler": 0,
      "source": 4
    },
    {
      "sampler": 0,
      "source": 5
    },
    {
      "sampler": 0,
      "source": 6
    },
    {
      "sampler": 0,
      "source": 7
    },
    {
      "sampler": 0,
      "source": 8
    }
  ]
}

