{
  "accessors": [
    {
      "bufferView": 2,
      "componentType": 5126,
      "count": 7168,
      "max": [
        2.2120048999786377,
        2.4921529293060303,
        0.015069060027599335
      ],
      "min": [
        -2.2442491054534912,
        -2.2408719062805176,
        -0.019884819164872169
      ],
      "type": "VEC3"
    },
    {
      "bufferView": 2,
      "byteOffset": 86016,
      "componentType": 5126,
      "count": 7168,
      "max": [
        0.99993449449539185,
        0.99994158744812012,
        0.97942060232162476
      ],
      "min": [
        -0.99995881319046021,
        -0.99992191791534424,
        -0.97312659025192261
      ],
      "type": "VEC3"
    },
    {
      "bufferView": 1,
      "componentType": 5126,
      "count": 7168,
      "max": [
        0.84364199638366699,
        0.91547518968582153
      ],
      "min": [
        0.18838560581207275,
        0.22344039380550385
      ],
      "type": "VEC2"
    },
    {
      "bufferView": 0,
      "componentType": 5125,
      "count": 37536,
      "max": [
        7167
      ],
      "min": [
        0
      ],
      "type": "SCALAR"
    },
    {
      "bufferView": 2,
      "byteOffset": 172032,
      "componentType": 5126,
      "count": 855,
      "max": [
        2.2161209583282471,
        2.4963369369506836,
        0.051727291196584702
      ],
      "min": [
        -2.2483580112457275,
        -2.2450621128082275,
        -0.018839830532670021
      ],
      "type": "VEC3"
    },
    {
      "bufferView": 2,
      "byteOffset": 182292,
      "componentType": 5126,
      "count": 855,
      "max": [
        0.99996435642242432,
        0.99970740079879761,
        0.98391199111938477
      ],
      "min": [
        -0.99990940093994141,
        -0.9999309778213501,
        -0.66651082038879395
      ],
      "type": "VEC3"
    },
    {
      "bufferView": 1,
      "byteOffset": 57344,
      "componentType": 5126,
      "count": 855,
      "max": [
        0.85297447443008423,
        0.9152187705039978
      ],
      "min": [
        0.55264347791671753,
        0.24940720200538635
      ],
      "type": "VEC2"
    },
    {
      "bufferView": 0,
      "byteOffset": 150144,
      "componentType": 5125,
      "count": 3996,
      "max": [
        854
      ],
      "min": [
        0
      ],
      "type": "SCALAR"
    },
    {
      "bufferView": 2,
      "byteOffset": 192552,
      "componentType": 5126,
      "count": 11528,
      "max": [
        2.2819631099700928,
        2.2793269157409668,
        0.049155648797750473
      ],
      "min": [
        -2.2564029693603516,
        -2.541234016418457,
        -0.062389068305492401
      ],
      "type": "VEC3"
    },
    {
      "bufferView": 2,
      "byteOffset": 330888,
      "componentType": 5126,
      "count": 11528,
      "max": [
        0.99999809265136719,
        1,
        1
      ],
      "min": [
        -0.99999916553497314,
        -0.99998247623443604,
        -0.91816568374633789
      ],
      "type": "VEC3"
    },
    {
      "bufferView": 1,
      "byteOffset": 64184,
      "componentType": 5126,
      "count": 11528,
      "max": [
        0.50372838973999023,
        0.62167537212371826
      ],
      "min": [
        0.063236832618713379,
        0.28541240096092224
      ],
      "type": "VEC2"
    },
    {
      "bufferView": 0,
      "byteOffset": 166128,
      "componentType": 5125,
      "count": 60240,
      "max": [
        11527
      ],
      "min": [
        0
      ],
      "type": "SCALAR"
    }
  ],
  "asset": {
    "extras": {
      "author": "3Dee (https://sketchfab.com/mellydeeis)",
      "license": "CC-BY-4.0 (http://creativecommons.org/licenses/by/4.0/)",
      "source": "https://sketchfab.com/3d-models/pizza-71a450c1b88845fc9772d34430e99b25",
      "title": "Pizza"
    },
    "generator": "Sketchfab-7.87.0",
    "version": "2.0"
  },
  "bufferViews": [
    {
      "buffer": 0,
      "byteLength": 407088,
      "byteOffset": 0,
      "name": "floatBufferViews",
      "target": 34963
    },
    {
      "buffer": 0,
      "byteLength": 156408,
      "byteOffset": 407088,
      "byteStride": 8,
      "name": "floatBufferViews",
      "target": 34962
    },
    {
      "buffer": 0,
      "byteLength": 469224,
      "byteOffset": 563496,
      "byteStride": 12,
      "name": "floatBufferViews",
      "target": 34962
    }
  ],
  "buffers": [
    {
      "byteLength": 1032720,
      "uri": "scene.bin"
    }
  ],
  "images": [
    {
      "uri": "textures/Material_baseColor.png"
    },
    {
      "uri": "textures/Material_metallicRoughness.png"
    },
    {
      "uri": "textures/Material.003_baseColor.jpeg"
    }
  ],
  "materials": [
    {
      "doubleSided": true,
      "emissiveFactor": [
        0,
        0,
        0
      ],
      "name": "Material",
      "pbrMetallicRoughness": {
        "baseColorFactor": [
          0.94339622639999998,
          0.94339622639999998,
          0.94339622639999998,
          1
        ],
        "baseColorTexture": {
          "index": 0,
          "texCoord": 0
        },
        "metallicFactor": 0.018867924500000001,
        "metallicRoughnessTexture": {
          "index": 1,
          "texCoord": 0
        },
        "roughnessFactor": 0
      }
    },
    {
      "doubleSided": true,
      "emissiveFactor": [
        0,
        0,
        0
      ],
      "name": "Material.003",
      "pbrMetallicRoughness": {
        "baseColorFactor": [
          1,
          1,
          1,
          1
        ],
        "baseColorTexture": {
          "index": 2,
          "texCoord": 0
        },
        "metallicFactor": 0,
        "roughnessFactor": 0.59999999999999998
      }
    },
    {
      "doubleSided": true,
      "emissiveFactor": [
        0,
        0,
        0
      ],
      "name": "Material.004",
      "pbrMetallicRoughness": {
        "baseColorFactor": [
          1,
          1,
          1,
          1
        ],
        "baseColorTexture": {
          "index": 2,
          "texCoord": 0
        },
        "metallicFactor": 0.1006289308,
        "roughnessFactor": 0.94968553460000005
      }
    }
  ],
  "meshes": [
    {
      "name": "Material_003-material",
      "primitives": [
        {
          "attributes": {
            "NORMAL": 1,
            "POSITION": 0,
            "TEXCOORD_0": 2
          },
          "indices": 3,
          "material": 1,
          "mode": 4
        }
      ]
    },
    {
      "name": "Material_004-material",
      "primitives": [
        {
          "attributes": {
            "NORMAL": 5,
            "POSITION": 4,
            "TEXCOORD_0": 6
          },
          "indices": 7,
          "material": 2,
          "mode": 4
        }
      ]
    },
    {
      "name": "Material-material",
      "primitives": [
        {
          "attributes": {
            "NORMAL": 9,
            "POSITION": 8,
            "TEXCOORD_0": 10
          },
          "indices": 11,
          "material": 0,
          "mode": 4
        }
      ]
    }
  ],
  "nodes": [
    {
      "children": [
        1
      ],
      "name": "RootNode (gltf orientation matrix)",
      "rotation": [
        -0.70710678118654746,
        -0,
        -0,
        0.70710678118654757
      ]
    },
    {
      "children": [
        2
      ],
      "matrix": [
        0,
        -1,
        0,
        0,
        1,
        0,
        0,
        0,
        0,
        0,
        1,
        0,
        0.036493223160505295,
        -0.013416712172329426,
        0,
        1
      ],
      "name": "RootNode (model correction matrix)"
    },
    {
      "children": [
        3,
        6
      ],
      "name": "Collada visual scene group"
    },
    {
      "children": [
        4,
        5
      ],
      "matrix": [
        0.054515340000000002,
        0.99851290000000004,
        0,
        0,
        -0.99851290000000004,
        0.054515340000000002,
        0,
        0,
        0,
        0,
        1.597566,
        0,
        0.0107937,
        -0.0091047290000000006,
        -0.063815769999999994,
        1
      ],
      "name": "Plane.009"
    },
    {
      "mesh": 0,
      "name": "Material_003-material"
    },
    {
      "mesh": 1,
      "name": "Material_004-material"
    },
    {
      "children": [
        7
      ],
      "matrix": [
        -0.042072619999999998,
        -0.98179300000000003,
        0,
        0,
        0.98179300000000003,
        -0.042072619999999998,
        0,
        0,
        0,
        0,
        0.98269390000000001,
        0,
        0.01343842,
        -0.01259565,
        -0.02984297,
        1
      ],
      "name": "Plane.013"
    },
    {
      "mesh": 2,
      "name": "Material-material"
    }
  ],
  "samplers": [
    {
      "magFilter": 9729,
      "minFilter": 9987,
      "wrapS": 10497,
      "wrapT": 10497
    }
  ],
  "scene": 0,
  "scenes": [
    {
      "name": "OSG_Scene",
      "nodes": [
        0
      ]
    }
  ],
  "textures": [
    {
      "sampler": 0,
      "source": 0
    },
    {
      "sampler": 0,
      "source": 1
    },
    {
      "sampler": 0,
      "source": 2
    }
  ]
}

